<?xml version="1.0" encoding="UTF-8" standalone="no"?>
<svg
   id="Layer_1"
   viewBox="0 0 1500 500"
   width="192"
   height="64"
   version="1.1"
   xmlns="http://www.w3.org/2000/svg"
   xmlns:svg="http://www.w3.org/2000/svg">
  <defs
     id="defs1">
    <style
       id="style1">.cls-1{fill:none;}.cls-2{fill:#fff;}.cls-3{fill:#326ce5;}</style>
  </defs>
  <g
     id="g6">
    <path
       class="cls-1"
       d="m 141.30142,452.59544 c 0.41882,0.49752 0.86197,0.97169 1.31125,1.44616 0.68508,0.72863 1.42908,1.39535 2.18332,2.04941 -0.75496,-0.65548 -1.49995,-1.32391 -2.1856,-2.05396 -0.44785,-0.47105 -0.88972,-0.94423 -1.30897,-1.4416 z"
       id="path1" />
    <path
       class="cls-1"
       d="m 351.98795,458.65999 c -1.04413,0.66644 -2.12782,1.26869 -3.24495,1.80364 -0.74599,0.35763 -1.51845,0.65377 -2.2929,0.95006 -0.99233,0.3757 -2.00373,0.6996 -3.02992,0.9697 -1.43178,0.38552 -2.8906,0.66274 -4.36408,0.82938 -1.02705,0.11684 -2.05994,0.17746 -3.09382,0.18201 l -170.0506,0.0396 h -1.66531 c -2.54308,-0.0165 -5.07307,-0.36545 -7.52578,-1.03773 -2.26785,-0.59998 -4.45544,-1.46067 -6.52264,-2.55902 2.06777,1.10091 4.25578,1.96402 6.52492,2.56571 2.452,0.67142 4.98142,1.01965 7.52351,1.03559 h 1.66759 l 170.0506,-0.0397 c 1.03388,-0.004 2.06648,-0.0637 3.09368,-0.17974 1.47362,-0.1675 2.93244,-0.44543 4.36408,-0.83166 1.02791,-0.27224 2.04058,-0.59813 3.03448,-0.97625 0.77801,-0.28249 1.5425,-0.59685 2.29276,-0.94352 1.11343,-0.53523 2.19343,-1.13763 3.234,-1.80364 2.69678,-1.69363 5.09812,-3.81704 7.10896,-6.28598 l 2.33858,-2.9148 -2.34072,2.91024 c -2.00899,2.46865 -4.40806,4.59192 -7.10241,6.28612 z"
       id="path2" />
    <polygon
       class="cls-1"
       points="471.85332,307.13631 471.85375,307.13361 471.85332,307.13517 "
       id="polygon2" />
    <path
       class="cls-1"
       d="m 82.51226,108.48765 22.49567,-10.7484 -22.49368,10.74626 c -4.02524,1.95022 -7.50671,4.7523 -10.24206,8.15408 2.73492,-3.40093 6.21568,-6.20202 10.24006,-8.15195 z"
       id="path3" />
    <path
       class="cls-1"
       d="m 466.13345,319.2146 -39.23048,48.80268 39.2282,-48.79813 c 1.99078,-2.49455 3.55505,-5.30162 4.62949,-8.30692 0.33699,-0.93156 0.58119,-1.89201 0.82426,-2.85189 -0.24392,0.95903 -0.48884,1.91877 -0.82654,2.84962 -1.07316,3.00431 -2.63601,5.81038 -4.62494,8.30465 z"
       id="path4" />
    <path
       class="cls-3"
       d="m 433.62356,128.35969 c -2.08171,-8.69828 -7.95428,-16.00419 -16.00149,-19.90705 L 262.89699,34.57762 c -8.12178,-3.87582 -17.55993,-3.87582 -25.68185,0 l -132.20721,63.16163 -22.49567,10.7484 c -4.02439,1.94993 -7.50515,4.75102 -10.24006,8.15195 -0.33628,0.41839 -0.62545,0.87236 -0.93896,1.3084 -0.32319,0.44956 -0.66985,0.88161 -0.96771,1.34867 -0.44856,0.70372 -0.84034,1.44345 -1.22942,2.18446 -0.12039,0.22912 -0.26569,0.4433 -0.38025,0.67583 -0.96913,1.96843 -1.72679,4.05513 -2.24736,6.22905 L 28.34449,294.4236 c -0.94095,4.19616 -0.94394,8.54814 -0.0088,12.74558 0.27551,1.27951 0.63541,2.53952 1.07743,3.77164 0.74684,2.10121 1.73561,4.10849 2.94667,5.98101 0.52199,0.80747 1.0817,1.58718 1.67826,2.33901 L 141.1207,452.39591 c 0.0564,0.07 0.12281,0.13078 0.18073,0.19952 0.41925,0.49737 0.86112,0.97055 1.30897,1.4416 0.68565,0.73005 1.43064,1.39848 2.1856,2.05396 0.17077,0.14829 0.32034,0.3202 0.49467,0.46436 0.12139,0.10076 0.25943,0.18002 0.38253,0.27879 0.83379,0.66786 1.68851,1.31082 2.59147,1.88518 0.63086,0.39733 1.27666,0.76862 1.93328,1.11827 2.0672,1.09835 4.25479,1.95904 6.52264,2.55902 2.45271,0.67227 4.9827,1.02122 7.52578,1.03773 h 1.66531 l 170.0506,-0.0396 c 1.03388,-0.005 2.06677,-0.0652 3.09382,-0.18201 1.47348,-0.16665 2.9323,-0.44387 4.36408,-0.82938 1.0262,-0.2701 2.0376,-0.594 3.02992,-0.9697 0.77445,-0.29629 1.54691,-0.59244 2.2929,-0.95006 1.11713,-0.53494 2.20083,-1.1372 3.24495,-1.80364 2.69436,-1.6942 5.09342,-3.81747 7.10241,-6.28612 l 2.34072,-2.91024 0.92174,-1.14873 64.55015,-80.29762 39.23048,-48.80268 c 1.98893,-2.49427 3.55178,-5.30034 4.62494,-8.30465 0.3377,-0.93085 0.58262,-1.89059 0.82654,-2.84962 0.0791,-0.31251 0.19938,-0.61336 0.2684,-0.92843 v 0.003 c 1.4e-4,-5.7e-4 2.8e-4,-10e-4 4.3e-4,-0.002 0.93782,-4.19445 0.93626,-8.54458 -0.005,-12.73832 l -38.22534,-166.0356 z"
       id="path5" />
    <path
       class="cls-2"
       d="m 492.03232,298.65605 v -0.007 L 450.3292,117.50555 c -2.27027,-9.4918 -8.67864,-17.46415 -17.46045,-21.7215 L 264.06636,15.19513 c -8.86136,-4.22931 -19.15921,-4.22931 -28.02057,0 L 67.2589,95.8323 c -8.78181,4.25351 -15.1926,12.22159 -17.46714,21.7104 L 8.16108,298.69775 c -1.89699,8.43614 -0.31949,17.28071 4.37717,24.54081 0.57266,0.87777 1.18046,1.72907 1.83865,2.54963 l 116.82662,145.25975 c 6.19903,7.56777 15.44719,11.98066 25.22973,12.03901 l 187.34668,-0.044 c 9.7804,-0.0558 19.02828,-4.46256 25.23201,-12.02364 L 485.79672,325.7465 c 6.05729,-7.62796 8.34848,-17.58198 6.2356,-27.09043 z m -20.17857,8.47755 c -1.4e-4,8.5e-4 -2.8e-4,0.002 -4.3e-4,0.003 v -0.004 c -0.069,0.31507 -0.18927,0.61592 -0.2684,0.92843 -0.24307,0.95988 -0.48727,1.92033 -0.82426,2.85189 -1.07444,3.0053 -2.63871,5.81237 -4.62949,8.30692 l -39.2282,48.79813 -64.55015,80.29762 -0.92174,1.14873 -2.33858,2.9148 c -2.01084,2.46894 -4.41218,4.59235 -7.10896,6.28598 -1.04057,0.66601 -2.12056,1.26841 -3.234,1.80364 -0.75026,0.34667 -1.51475,0.66103 -2.29276,0.94352 -0.99389,0.37812 -2.00657,0.70401 -3.03448,0.97625 -1.43164,0.38623 -2.89046,0.66416 -4.36408,0.83166 -1.02719,0.11598 -2.0598,0.17604 -3.09368,0.17974 l -170.0506,0.0397 h -1.66759 c -2.54209,-0.0159 -5.0715,-0.36417 -7.52351,-1.03559 -2.26913,-0.60169 -4.45715,-1.4648 -6.52492,-2.56571 -0.65662,-0.34966 -1.30242,-0.72094 -1.93328,-1.11827 -0.90296,-0.57436 -1.75767,-1.21732 -2.59147,-1.88518 -0.1231,-0.0988 -0.26114,-0.17803 -0.38253,-0.27879 -0.17433,-0.14416 -0.3239,-0.31607 -0.49467,-0.46436 -0.75424,-0.65406 -1.49824,-1.32078 -2.18332,-2.04941 -0.44927,-0.47446 -0.89243,-0.94864 -1.31125,-1.44616 -0.0579,-0.0687 -0.12438,-0.1295 -0.18073,-0.19952 L 34.03802,319.26084 c -0.59656,-0.75182 -1.15627,-1.53154 -1.67826,-2.33901 -1.21106,-1.87252 -2.19983,-3.8798 -2.94667,-5.98101 -0.44202,-1.23212 -0.80192,-2.49213 -1.07743,-3.77164 -0.93512,-4.19744 -0.93213,-8.54942 0.0088,-12.74558 L 66.50849,128.38601 c 0.52057,-2.17393 1.27823,-4.26062 2.24736,-6.22905 0.11456,-0.23253 0.25986,-0.44671 0.38025,-0.67583 0.38908,-0.74101 0.78086,-1.48074 1.22942,-2.18446 0.29786,-0.46706 0.64452,-0.89912 0.96771,-1.34867 0.31351,-0.43604 0.60268,-0.89001 0.93896,-1.3084 2.73534,-3.40178 6.21682,-6.20387 10.24206,-8.15408 L 105.00793,97.73926 237.21514,34.57763 c 8.12192,-3.87582 17.56007,-3.87582 25.68185,0 l 154.72508,73.87502 c 8.04721,3.90285 13.91978,11.20877 16.00149,19.90705 l 38.22534,166.0356 c 0.9411,4.19374 0.94266,8.54387 0.005,12.73832 z"
       id="path6" />
  </g>
  <g
     id="g10">
    <path
       class="cls-2"
       d="m 318.3788,343.9153 87.01212,-87.01218 c 4.10017,-4.10023 3.95332,-10.79183 -0.32286,-14.70813 l -87.01218,-79.68965 c -2.02996,-1.8591 -4.44715,-2.69323 -6.81297,-2.69323 -5.2464,0 -10.24543,4.09745 -10.24543,10.2018 v 18.65075 L 349.5847,233.163 c 4.48989,4.112 7.14162,9.96136 7.27523,16.04821 0.13367,6.08691 -2.25881,12.04701 -6.56395,16.35215 l -49.29849,49.29855 v 21.85377 c 0,6.13722 5.02139,10.20216 10.25525,10.20216 2.50191,0 5.05154,-0.92807 7.12607,-3.00254 z"
       id="path7" />
    <path
       class="cls-2"
       d="m 254.62361,343.9153 34.12644,-34.12644 6.12368,-6.12368 6.12374,-6.1238 40.63825,-40.63825 c 4.10023,-4.10023 3.95338,-10.79183 -0.32286,-14.70813 l -40.31539,-36.92266 -6.12374,-5.60839 -6.12368,-5.60839 -34.4493,-31.55021 c -2.03001,-1.8591 -4.44715,-2.69323 -6.81297,-2.69323 -5.24646,0 -10.24543,4.09745 -10.24543,10.2018 v 18.65081 l 48.58716,44.49828 c 1.08492,0.99364 2.05987,2.09061 2.92054,3.26593 2.70121,3.68869 4.25341,8.16623 4.35474,12.78229 0.10866,4.94926 -1.453,9.81451 -4.35474,13.77462 -0.667,0.91028 -1.40458,1.7729 -2.20921,2.57753 l -49.29849,49.29849 v 21.85383 c 0,6.13722 5.02139,10.20216 10.25519,10.20216 2.50197,0 5.0516,-0.92807 7.12607,-3.00254 z"
       id="path8" />
    <path
       class="cls-2"
       d="m 190.86849,343.9153 34.12644,-34.12644 6.12345,-6.12345 6.12398,-6.12404 40.63825,-40.63825 c 4.10017,-4.10023 3.95332,-10.79183 -0.32292,-14.70813 l -40.31534,-36.9226 -6.12398,-5.60863 -6.12345,-5.6081 -34.44942,-31.55033 c -2.02996,-1.8591 -4.44709,-2.69323 -6.81291,-2.69323 -5.2464,0 -10.24543,4.09745 -10.24543,10.2018 v 18.65152 l 48.58633,44.49757 c 1.08533,0.99399 2.06052,2.09132 2.92143,3.26711 2.70056,3.68846 4.25247,8.16558 4.3538,12.78111 0.10866,4.94879 -1.45259,9.81362 -4.3538,13.7735 -0.66723,0.91069 -1.40517,1.77367 -2.21015,2.57865 l -49.29761,49.29766 v 21.85466 c 0,6.13722 5.02139,10.20216 10.25525,10.20216 2.50191,0 5.05154,-0.92807 7.12607,-3.00254 z"
       id="path9" />
    <path
       class="cls-2"
       d="m 127.11247,343.9153 34.12727,-34.12727 6.12327,-6.12327 6.12416,-6.12422 40.63742,-40.63742 c 4.10017,-4.10023 3.95332,-10.79183 -0.32292,-14.70813 l -40.31451,-36.92183 -6.12416,-5.6088 -6.12327,-5.60798 -34.45018,-31.55104 c -2.02996,-1.8591 -4.44715,-2.69323 -6.81297,-2.69323 -5.2464,0 -10.24543,4.09745 -10.24543,10.2018 v 166.70177 c 0,6.13722 5.02139,10.20216 10.25525,10.20216 2.50191,0 5.05154,-0.92807 7.12607,-3.00254 z"
       id="path10" />
  </g>
  <text
     xml:space="preserve"
     style="font-size:333.333px;text-align:start;writing-mode:lr-tb;direction:ltr;text-anchor:start;fill:#326ce5;fill-opacity:1;stroke-width:7.8125"
     x="493.08557"
     y="376.99988"
     id="text10"><tspan
       id="tspan10"
       style="font-style:normal;font-variant:normal;font-weight:bold;font-stretch:normal;font-size:333.333px;font-family:Ubuntu;-inkscape-font-specification:'Ubuntu Bold';fill:#326ce5;fill-opacity:1;stroke-width:7.8125"
       x="493.08557"
       y="376.99988">kueue</tspan></text>
</svg>
