<svg version="1.1" xmlns="http://www.w3.org/2000/svg" viewBox="0 0 903.59765625 638.5078125" width="1807.1953125" height="1277.015625">
  <!-- svg-source:excalidraw -->
  
  <defs>
    <style class="style-fonts">
      @font-face {
        font-family: "Virgil";
        src: url("https://asadmemon.users.x20web.corp.google.com//dist/excalidraw-assets/Virgil.woff2");
      }
      @font-face {
        font-family: "Cascadia";
        src: url("https://asadmemon.users.x20web.corp.google.com//dist/excalidraw-assets/Cascadia.woff2");
      }
    </style>
  </defs>
  <rect x="0" y="0" width="903.59765625" height="638.5078125" fill="#ffffff"></rect><g stroke-linecap="round" transform="translate(302.6328125 11.54296875) rotate(0 132.42578125 69.25390625)"><path d="M32 0 M32 0 C76 -2.8, 118.31 -1.99, 232.85 0 M32 0 C110.36 1.12, 189.54 0.15, 232.85 0 M232.85 0 C252.37 -0.73, 265.74 9.58, 264.85 32 M232.85 0 C251.91 1.25, 265.43 12.62, 264.85 32 M264.85 32 C266.39 61.21, 266.42 89.49, 264.85 106.51 M264.85 32 C265.15 52.51, 265.53 72.09, 264.85 106.51 M264.85 106.51 C265.26 129.46, 255.65 140.17, 232.85 138.51 M264.85 106.51 C266.24 128.19, 252.57 139.93, 232.85 138.51 M232.85 138.51 C165.1 138.69, 92.65 137.55, 32 138.51 M232.85 138.51 C174.25 138.01, 115.9 137.73, 32 138.51 M32 138.51 C10.07 137.71, 0.33 125.87, 0 106.51 M32 138.51 C9.07 136.64, -0.87 128.73, 0 106.51 M0 106.51 C-1.06 87.71, -1.02 67.05, 0 32 M0 106.51 C0.03 87.54, 0.28 69.97, 0 32 M0 32 C1.6 12.6, 9.96 1.64, 32 0 M0 32 C-1.4 8.72, 9.51 0.43, 32 0" stroke="#000000" stroke-width="1" fill="none"></path></g><g transform="translate(351.32421875 55.81640625) rotate(0 86.22992706298828 25)"><text x="0" y="0" font-family="Virgil, Segoe UI Emoji" font-size="20px" fill="#000000" text-anchor="start" style="white-space: pre;" direction="ltr" dominant-baseline="text-before-edge">top-level job</text><text x="0" y="25" font-family="Virgil, Segoe UI Emoji" font-size="20px" fill="#000000" text-anchor="start" style="white-space: pre;" direction="ltr" dominant-baseline="text-before-edge">(e.g. batch.v1.Job)</text></g><g stroke-linecap="round" transform="translate(407.5078125 10) rotate(0 0.12890625 0.12890625)"><path d="M0.06 0 M0.06 0 C0.12 0, 0.15 0.01, 0.19 0 M0.06 0 C0.1 0, 0.13 0, 0.19 0 M0.19 0 C0.17 1.05, 1.71 -1.89, 0.26 0.06 M0.19 0 C-0.79 0.89, -0.09 -1.6, 0.26 0.06 M0.26 0.06 C0.27 0.11, 0.27 0.16, 0.26 0.19 M0.26 0.06 C0.25 0.11, 0.26 0.16, 0.26 0.19 M0.26 0.19 C-0.36 -0.41, -0.11 -1.16, 0.19 0.26 M0.26 0.19 C2.29 0.11, 2.49 1.59, 0.19 0.26 M0.19 0.26 C0.16 0.27, 0.1 0.26, 0.06 0.26 M0.19 0.26 C0.17 0.26, 0.13 0.26, 0.06 0.26 M0.06 0.26 C-0.97 -0.45, -0.8 1.63, 0 0.19 M0.06 0.26 C0.59 -0.07, -1.7 2.08, 0 0.19 M0 0.19 C0 0.14, -0.01 0.11, 0 0.06 M0 0.19 C0 0.16, 0 0.13, 0 0.06 M0 0.06 C1.29 -1.93, 0.35 -0.99, 0.06 0 M0 0.06 C0.72 2.04, 1.28 -2.15, 0.06 0" stroke="#000000" stroke-width="1" fill="none"></path></g><g stroke-linecap="round" transform="translate(299.84765625 239.16796875) rotate(0 132.42578125 69.25390625)"><path d="M32 0 M32 0 C76 -2.8, 118.31 -1.99, 232.85 0 M32 0 C110.36 1.12, 189.54 0.15, 232.85 0 M232.85 0 C252.37 -0.73, 265.74 9.58, 264.85 32 M232.85 0 C251.91 1.25, 265.43 12.62, 264.85 32 M264.85 32 C266.39 61.21, 266.42 89.49, 264.85 106.51 M264.85 32 C265.15 52.51, 265.53 72.09, 264.85 106.51 M264.85 106.51 C265.26 129.46, 255.65 140.17, 232.85 138.51 M264.85 106.51 C266.24 128.19, 252.57 139.93, 232.85 138.51 M232.85 138.51 C165.1 138.69, 92.65 137.55, 32 138.51 M232.85 138.51 C174.25 138.01, 115.9 137.73, 32 138.51 M32 138.51 C10.07 137.71, 0.33 125.87, 0 106.51 M32 138.51 C9.07 136.64, -0.87 128.73, 0 106.51 M0 106.51 C-1.06 87.71, -1.02 67.05, 0 32 M0 106.51 C0.03 87.54, 0.28 69.97, 0 32 M0 32 C1.6 12.6, 9.96 1.64, 32 0 M0 32 C-1.4 8.72, 9.51 0.43, 32 0" stroke="#000000" stroke-width="1" fill="none"></path></g><g transform="translate(351.20349884033203 295.921875) rotate(0 81.06993865966797 12.5)"><text x="81.06993865966797" y="0" font-family="Virgil, Segoe UI Emoji" font-size="20px" fill="#000000" text-anchor="middle" style="white-space: pre;" direction="ltr" dominant-baseline="text-before-edge">Parent Workload</text></g><g stroke-linecap="round"><g transform="translate(436.93359375 231.76171875) rotate(0 0.14729934924991994 -37.76921633295717)"><path d="M0.68 -0.09 C0.94 -12.55, 0.64 -62.91, 0.38 -75.45 M-0.42 -1.19 C-0.19 -13.38, -0.7 -61.83, -0.37 -73.96" stroke="#000000" stroke-width="1" fill="none"></path></g></g><mask></mask><g stroke-linecap="round" transform="translate(10 488.79296875) rotate(0 132.42578125 69.25390625)"><path d="M32 0 M32 0 C76 -2.8, 118.31 -1.99, 232.85 0 M32 0 C110.36 1.12, 189.54 0.15, 232.85 0 M232.85 0 C252.37 -0.73, 265.74 9.58, 264.85 32 M232.85 0 C251.91 1.25, 265.43 12.62, 264.85 32 M264.85 32 C266.39 61.21, 266.42 89.49, 264.85 106.51 M264.85 32 C265.15 52.51, 265.53 72.09, 264.85 106.51 M264.85 106.51 C265.26 129.46, 255.65 140.17, 232.85 138.51 M264.85 106.51 C266.24 128.19, 252.57 139.93, 232.85 138.51 M232.85 138.51 C165.1 138.69, 92.65 137.55, 32 138.51 M232.85 138.51 C174.25 138.01, 115.9 137.73, 32 138.51 M32 138.51 C10.07 137.71, 0.33 125.87, 0 106.51 M32 138.51 C9.07 136.64, -0.87 128.73, 0 106.51 M0 106.51 C-1.06 87.71, -1.02 67.05, 0 32 M0 106.51 C0.03 87.54, 0.28 69.97, 0 32 M0 32 C1.6 12.6, 9.96 1.64, 32 0 M0 32 C-1.4 8.72, 9.51 0.43, 32 0" stroke="#000000" stroke-width="1" fill="none"></path></g><g transform="translate(44.785865783691406 533.046875) rotate(0 97.6399154663086 25)"><text x="97.6399154663086" y="0" font-family="Virgil, Segoe UI Emoji" font-size="20px" fill="#000000" text-anchor="middle" style="white-space: pre;" direction="ltr" dominant-baseline="text-before-edge">Reservation Option </text><text x="97.6399154663086" y="25" font-family="Virgil, Segoe UI Emoji" font-size="20px" fill="#000000" text-anchor="middle" style="white-space: pre;" direction="ltr" dominant-baseline="text-before-edge">Workload</text></g><g stroke-linecap="round" transform="translate(313.74609375 490) rotate(0 132.42578125 69.25390625)"><path d="M32 0 M32 0 C76 -2.8, 118.31 -1.99, 232.85 0 M32 0 C110.36 1.12, 189.54 0.15, 232.85 0 M232.85 0 C252.37 -0.73, 265.74 9.58, 264.85 32 M232.85 0 C251.91 1.25, 265.43 12.62, 264.85 32 M264.85 32 C266.39 61.21, 266.42 89.49, 264.85 106.51 M264.85 32 C265.15 52.51, 265.53 72.09, 264.85 106.51 M264.85 106.51 C265.26 129.46, 255.65 140.17, 232.85 138.51 M264.85 106.51 C266.24 128.19, 252.57 139.93, 232.85 138.51 M232.85 138.51 C165.1 138.69, 92.65 137.55, 32 138.51 M232.85 138.51 C174.25 138.01, 115.9 137.73, 32 138.51 M32 138.51 C10.07 137.71, 0.33 125.87, 0 106.51 M32 138.51 C9.07 136.64, -0.87 128.73, 0 106.51 M0 106.51 C-1.06 87.71, -1.02 67.05, 0 32 M0 106.51 C0.03 87.54, 0.28 69.97, 0 32 M0 32 C1.6 12.6, 9.96 1.64, 32 0 M0 32 C-1.4 8.72, 9.51 0.43, 32 0" stroke="#000000" stroke-width="1" fill="none"></path></g><g transform="translate(353.26194763183594 534.25390625) rotate(0 92.90992736816406 25)"><text x="92.90992736816406" y="0" font-family="Virgil, Segoe UI Emoji" font-size="20px" fill="#000000" text-anchor="middle" style="white-space: pre;" direction="ltr" dominant-baseline="text-before-edge">On-Demand Option </text><text x="92.90992736816406" y="25" font-family="Virgil, Segoe UI Emoji" font-size="20px" fill="#000000" text-anchor="middle" style="white-space: pre;" direction="ltr" dominant-baseline="text-before-edge">Workload</text></g><g stroke-linecap="round" transform="translate(628.74609375 489.6640625) rotate(0 132.42578125 69.25390625)"><path d="M32 0 M32 0 C76 -2.8, 118.31 -1.99, 232.85 0 M32 0 C110.36 1.12, 189.54 0.15, 232.85 0 M232.85 0 C252.37 -0.73, 265.74 9.58, 264.85 32 M232.85 0 C251.91 1.25, 265.43 12.62, 264.85 32 M264.85 32 C266.39 61.21, 266.42 89.49, 264.85 106.51 M264.85 32 C265.15 52.51, 265.53 72.09, 264.85 106.51 M264.85 106.51 C265.26 129.46, 255.65 140.17, 232.85 138.51 M264.85 106.51 C266.24 128.19, 252.57 139.93, 232.85 138.51 M232.85 138.51 C165.1 138.69, 92.65 137.55, 32 138.51 M232.85 138.51 C174.25 138.01, 115.9 137.73, 32 138.51 M32 138.51 C10.07 137.71, 0.33 125.87, 0 106.51 M32 138.51 C9.07 136.64, -0.87 128.73, 0 106.51 M0 106.51 C-1.06 87.71, -1.02 67.05, 0 32 M0 106.51 C0.03 87.54, 0.28 69.97, 0 32 M0 32 C1.6 12.6, 9.96 1.64, 32 0 M0 32 C-1.4 8.72, 9.51 0.43, 32 0" stroke="#000000" stroke-width="1" fill="none"></path></g><g transform="translate(656.0319671630859 546.41796875) rotate(0 105.13990783691406 12.5)"><text x="105.13990783691406" y="0" font-family="Virgil, Segoe UI Emoji" font-size="20px" fill="#000000" text-anchor="middle" style="white-space: pre;" direction="ltr" dominant-baseline="text-before-edge">Spot Option Workload</text></g><g stroke-linecap="round"><g transform="translate(141.18359375 480.90234375) rotate(0 138.2260655853246 -48.246078093722474)"><path d="M0.82 0.97 C46.93 -15.09, 230.65 -81.01, 276.66 -97.46 M-0.21 0.43 C45.74 -15.36, 229.66 -79.89, 275.74 -96.07" stroke="#000000" stroke-width="1" fill="none"></path></g></g><mask></mask><g stroke-linecap="round"><g transform="translate(439.0234375 482.015625) rotate(0 0.7379370470345066 -49.254630649834894)"><path d="M-0.29 0.26 C-0.26 -15.96, 0.79 -80.67, 1.15 -97.23 M1.76 -0.66 C1.5 -17.18, 0.02 -82.51, -0.08 -98.76" stroke="#000000" stroke-width="1" fill="none"></path></g></g><mask></mask><g stroke-linecap="round"><g transform="translate(761.77734375 482.3359375) rotate(0 -148.78330758398397 -48.35035537899472)"><path d="M-0.28 -0.83 C-49.95 -16.98, -249.06 -82.03, -298.84 -98.05 M1.77 1.35 C-47.9 -14.54, -249.15 -80.08, -299.33 -96.82" stroke="#000000" stroke-width="1" fill="none"></path></g></g><mask></mask></svg>